<?xml version="1.0" encoding="utf-8"?>
<!-- Generator: Adobe Illustrator 15.0.0, SVG Export Plug-In . SVG Version: 6.00 Build 0)  -->
<!DOCTYPE svg PUBLIC "-//W3C//DTD SVG 1.1//EN" "http://www.w3.org/Graphics/SVG/1.1/DTD/svg11.dtd">
<svg version="1.1" id="instagram" xmlns="http://www.w3.org/2000/svg" xmlns:xlink="http://www.w3.org/1999/xlink" x="0px" y="0px"
	 width="62px" height="62px" viewBox="365 275 62 62" enable-background="new 365 275 62 62" xml:space="preserve">
<path fill-rule="evenodd" clip-rule="evenodd" fill="#FFFFFF" d="M372.958,275h46.084c4.377,0,7.958,3.581,7.958,7.958v46.085
	c0,4.376-3.581,7.957-7.958,7.957h-46.084c-4.377,0-7.958-3.581-7.958-7.957v-46.085C365,278.581,368.581,275,372.958,275
	L372.958,275z M410.165,281.889c-1.536,0-2.791,1.255-2.791,2.791v6.681c0,1.535,1.255,2.791,2.791,2.791h7.008
	c1.534,0,2.79-1.256,2.79-2.791v-6.681c0-1.536-1.256-2.791-2.79-2.791H410.165L410.165,281.889z M419.993,301.219h-5.458
	c0.517,1.686,0.796,3.471,0.796,5.32c0,10.312-8.629,18.672-19.272,18.672c-10.643,0-19.271-8.359-19.271-18.672
	c0-1.849,0.278-3.634,0.795-5.32h-5.694v26.19c0,1.355,1.109,2.465,2.465,2.465h43.175c1.355,0,2.465-1.109,2.465-2.465V301.219
	L419.993,301.219z M396.059,293.8c-6.876,0-12.451,5.402-12.451,12.065c0,6.664,5.575,12.065,12.451,12.065
	c6.878,0,12.453-5.401,12.453-12.065C408.512,299.202,402.937,293.8,396.059,293.8z"/>
</svg>
