<?xml version="1.0" encoding="utf-8"?>
<!-- Generator: Adobe Illustrator 15.0.0, SVG Export Plug-In . SVG Version: 6.00 Build 0)  -->
<!DOCTYPE svg PUBLIC "-//W3C//DTD SVG 1.1//EN" "http://www.w3.org/Graphics/SVG/1.1/DTD/svg11.dtd">
<svg version="1.1" id="pinterest" xmlns="http://www.w3.org/2000/svg" xmlns:xlink="http://www.w3.org/1999/xlink" x="0px" y="0px"
	 width="62px" height="62px" viewBox="365 275 62 62" enable-background="new 365 275 62 62" xml:space="preserve">
<g>
	<path fill="#FFFFFF" d="M396.001,275c-17.12,0-31,13.879-31,31c0,12.693,7.633,23.598,18.555,28.393
		c-0.087-2.164-0.016-4.763,0.54-7.118c0.596-2.517,3.988-16.892,3.988-16.892s-0.99-1.979-0.99-4.905
		c0-4.594,2.663-8.025,5.979-8.025c2.82,0,4.182,2.118,4.182,4.654c0,2.834-1.808,7.074-2.737,11.001
		c-0.776,3.288,1.648,5.971,4.894,5.971c5.873,0,9.828-7.544,9.828-16.481c0-6.794-4.575-11.88-12.898-11.88
		c-9.403,0-15.262,7.013-15.262,14.846c0,2.7,0.796,4.605,2.044,6.08c0.573,0.678,0.653,0.95,0.445,1.728
		c-0.148,0.57-0.49,1.944-0.632,2.488c-0.206,0.785-0.843,1.065-1.552,0.775c-4.331-1.768-6.349-6.512-6.349-11.843
		c0-8.806,7.427-19.365,22.155-19.365c11.836,0,19.625,8.565,19.625,17.758c0,12.161-6.761,21.246-16.727,21.246
		c-3.347,0-6.495-1.81-7.573-3.864c0,0-1.8,7.143-2.181,8.521c-0.657,2.391-1.943,4.779-3.12,6.641
		c2.788,0.823,5.733,1.271,8.786,1.271c17.118,0,30.998-13.879,30.998-31C426.999,288.879,413.119,275,396.001,275z"/>
</g>
</svg>
