<?xml version="1.0" encoding="utf-8"?>
<!-- Generator: Adobe Illustrator 15.0.0, SVG Export Plug-In . SVG Version: 6.00 Build 0)  -->
<!DOCTYPE svg PUBLIC "-//W3C//DTD SVG 1.1//EN" "http://www.w3.org/Graphics/SVG/1.1/DTD/svg11.dtd">
<svg version="1.1" id="twitter" xmlns="http://www.w3.org/2000/svg" xmlns:xlink="http://www.w3.org/1999/xlink" x="0px" y="0px"
	 width="62px" height="62px" viewBox="365 275 62 62" enable-background="new 365 275 62 62" xml:space="preserve">
<path fill="#FFFFFF" d="M426.927,286.764c-0.087-0.104-0.233-0.14-0.358-0.083c-1.855,0.822-3.805,1.413-5.812,1.763
	c2.132-1.603,3.72-3.824,4.533-6.37c0.041-0.122,0-0.256-0.101-0.336c-0.1-0.079-0.239-0.09-0.349-0.025
	c-2.402,1.426-5.002,2.43-7.734,2.987c-2.421-2.513-5.8-3.95-9.299-3.95c-7.113,0-12.901,5.788-12.901,12.902
	c0,0.859,0.085,1.712,0.248,2.539c-9.854-0.607-19.068-5.339-25.332-13.023c-0.063-0.079-0.163-0.122-0.263-0.111
	c-0.101,0.008-0.193,0.063-0.243,0.151c-1.143,1.961-1.746,4.205-1.746,6.486c0,3.956,1.796,7.654,4.856,10.094
	c-1.574-0.189-3.113-0.685-4.5-1.456c-0.096-0.053-0.21-0.052-0.306,0.002c-0.092,0.055-0.15,0.153-0.153,0.261v0.165
	c0,5.681,3.743,10.669,9.068,12.324c-1.404,0.229-2.858,0.211-4.289-0.063c-0.104-0.018-0.216,0.02-0.288,0.1
	c-0.071,0.082-0.096,0.195-0.062,0.299c1.598,4.985,6.036,8.479,11.2,8.915c-4.311,3.156-9.402,4.819-14.784,4.819
	c-0.99,0-1.989-0.06-2.968-0.175c-0.139-0.016-0.276,0.068-0.326,0.202c-0.048,0.136,0.003,0.286,0.124,0.363
	c5.824,3.733,12.557,5.708,19.471,5.708c22.623,0,36.141-18.376,36.141-36.141c0-0.495-0.009-0.986-0.028-1.478
	c2.439-1.784,4.533-3.971,6.224-6.499C427.025,287.02,427.017,286.87,426.927,286.764"/>
</svg>
