<?xml version="1.0" encoding="utf-8"?>
<!-- Generator: Adobe Illustrator 15.0.0, SVG Export Plug-In . SVG Version: 6.00 Build 0)  -->
<!DOCTYPE svg PUBLIC "-//W3C//DTD SVG 1.1//EN" "http://www.w3.org/Graphics/SVG/1.1/DTD/svg11.dtd">
<svg version="1.1" id="wilmasanchez" xmlns="http://www.w3.org/2000/svg" xmlns:xlink="http://www.w3.org/1999/xlink" x="0px"
	 y="0px" width="245px" height="240px" viewBox="273.5 186 245 240" enable-background="new 273.5 186 245 240"
	 xml:space="preserve">
<path fill="#231F20" d="M488.452,281.891l5.786-40.793h-35.382l-0.003,0.503l-0.327,43.916c-1.274,0.424-2.56,0.874-3.857,1.365
	c-18.836,7.106-34.049,18.847-34.99,19.583l-19.195-34.542l5.813-10.428l17.253,29.709c0.007-0.003,0.014-0.007,0.021-0.012
	l0.004,0.01c0.102-0.06,0.203-0.119,0.304-0.178c0.19-0.105,0.38-0.213,0.553-0.316l-0.002-0.002
	c0.007-0.005,0.014-0.008,0.021-0.012c16.317-9.853,27.267-27.837,27.267-48.354c0-31.066-25.092-56.34-55.933-56.34
	s-55.93,25.273-55.93,56.34c0,2.114,0.123,4.199,0.349,6.252l-0.002,0.001c0.004,0.029,0.01,0.08,0.016,0.154l0.005-0.001
	c0.043,0.39,0.088,0.779,0.139,1.166c0.099,0.827,0.266,1.941,0.545,3.325c0.027,0.136,0.061,0.282,0.09,0.423
	c0.043,0.213,0.089,0.425,0.134,0.636c0.171,0.77,0.384,1.621,0.627,2.521c0.163,0.615,0.337,1.224,0.52,1.831
	c0.222,0.741,0.457,1.505,0.729,2.312c2.691,8.046,7.959,19.32,18.206,32.097c-8.426,10.118-17.921,19.787-27.912,26.882
	l-0.582-78.338l-0.004-0.503H297.33l12.694,89.504c-8.761,1.483-17.31-0.177-24.202-4.867c-3.319-2.258-6.02-5.109-7.954-8.28
	c-1.371-2.249-2.351-4.658-2.889-7.137c-0.259-1.189-0.424-2.393-0.47-3.603c0.005-7.135,5.23-13.048,12.027-14.105l-0.156-1.003
	c-7.282,1.134-12.881,7.473-12.881,15.12c0,0.007,0.001,0.013,0.001,0.02H273.5c0.001,0.015,0.003,0.031,0.003,0.046
	c0.006,1.29,0.185,2.536,0.489,3.733c1.352,6.227,5.375,12.043,11.265,16.051c5.435,3.699,11.859,5.581,18.61,5.58
	c2.076,0,4.182-0.185,6.3-0.543l8.765,61.809l0.062,0.438h13.511l46.033-82.57c4.92,4.47,10.212,8.905,15.37,13.223
	c0.42,0.352,0.842,0.704,1.262,1.056c-17.554,14.705-35.568,29.93-39.54,48.362l0.006,0.001c-0.838,3.306-1.286,6.767-1.286,10.331
	c0,23.014,18.587,41.737,41.435,41.737c22.849,0,41.437-18.724,41.437-41.737c0-3.564-0.447-7.025-1.286-10.331l0.006-0.001
	c-3.928-18.229-21.562-33.583-39.192-48.361c2.888-2.412,9.851-8.159,16.781-13.386l45.534,81.677h13.512l0.062-0.438
	l15.674-110.525c9.459,1.335,19.09,5.964,24.581,12.619c2.86,3.469,4.601,7.483,4.601,11.869c0,7.887-6.37,14.304-14.2,14.304
	c-0.634,0-1.257-0.058-1.869-0.14l-0.135,1.007c0.658,0.087,1.324,0.148,2.004,0.148c8.388,0,15.209-6.873,15.209-15.319
	C518.5,294.037,503.27,283.98,488.452,281.891 M459.858,242.113h33.219l-5.627,39.672c-8.366-0.994-17.719,0.128-27.913,3.397
	L459.858,242.113z M420.225,307.323c0.153-0.122,15.591-12.246,34.818-19.499c1.13-0.426,2.292-0.839,3.476-1.235l-0.66,88.582
	l-37.684-67.812C420.191,307.347,420.209,307.334,420.225,307.323 M418.848,307.052c-1.613,1.128-3.297,2.353-5.001,3.627
	l-17.484-31.363l3.542-6.353L418.848,307.052z M405.236,261.325l-5.329,9.56l-0.58,1.039l-3.543,6.355l-0.578,1.037l-16.929,30.366
	c-0.871-0.799-1.729-1.599-2.569-2.398c-0.689-0.657-1.361-1.311-2.024-1.966l17.98-32.354l0.576-1.039l3.544-6.375l0.104-0.186
	l0.475-0.854l0.103-0.185l5.611-10.099l0.571-1.027l1.431-2.575c0.008-0.016,0.018-0.029,0.025-0.046
	c0.209-0.402,0.405-0.821,0.594-1.252c1.213-2.807,1.927-6.197,1.927-9.849c0-9.518-4.835-17.268-10.819-17.457v-0.004
	c-0.007,0-0.014,0.002-0.021,0.002s-0.014-0.002-0.021-0.002v0.004c-5.983,0.189-10.821,7.939-10.821,17.457
	c0,3.651,0.716,7.042,1.93,9.849c0.187,0.431,0.382,0.85,0.593,1.252c0.008,0.017,0.018,0.03,0.025,0.046l1.518,2.73l0.567,1.021
	l5.528,9.95l0.103,0.185l-0.453,0.813l-3.092,5.562l-5.329-9.56l-0.486-0.874l-0.56-1.004l-1.819-3.262l-0.885-1.587
	c-2.132-4.151-3.4-9.33-3.4-14.94c0-13.606,7.445-24.679,16.603-24.694c9.156,0.016,16.601,11.088,16.601,24.694
	c0,5.61-1.269,10.789-3.398,14.94l-0.885,1.587l-1.821,3.267l-0.572,1.027L405.236,261.325z M372.939,304.576
	c-3.94-3.938-7.392-7.796-10.416-11.532c9.085-10.986,16.896-22.422,22.709-31.619l5.852,10.499L372.939,304.576z M389.023,251.303
	l-0.869-1.564c-1.375-2.816-2.203-6.38-2.203-10.261c0-8.965,4.394-16.265,9.833-16.442c5.438,0.178,9.831,7.478,9.831,16.442
	c0,3.881-0.828,7.444-2.201,10.261l-0.869,1.564l-0.488,0.878l-6.271-10.8l-0.424,0.811c-0.085,0.166-2.147,4.073-5.755,10.16
	L389.023,251.303z M395.826,243.466l5.659,9.743l-1.1,1.979l-4.602,8.279l-4.602-8.279l-1.009-1.816
	C393.06,248.525,395.01,244.977,395.826,243.466 M350.664,275.58c-2.819-5.101-4.812-9.691-6.208-13.577
	c-1.011-2.81-1.712-5.247-2.199-7.254c-0.455-1.99-0.802-4.021-1.038-6.087h0.002c-0.002-0.02-0.006-0.043-0.008-0.065
	c-0.23-2.053-0.351-4.141-0.351-6.257c0-30.505,24.638-55.323,54.921-55.323c30.285,0,54.924,24.818,54.924,55.323
	c0,20.145-10.748,37.802-26.767,47.478c-0.007,0.005-0.014,0.008-0.02,0.012l-17.051-29.361l2.447-4.388
	c0.043-0.077,0.086-0.155,0.13-0.232c0.713-1.28,1.344-2.662,1.882-4.131c1.315-3.598,2.064-7.702,2.064-12.059
	c0-14.157-7.887-25.677-17.589-25.71v-0.002c-0.007,0-0.014,0.001-0.021,0.001s-0.014-0.001-0.021-0.001v0.002
	c-9.702,0.033-17.591,11.553-17.591,25.71c0,4.356,0.751,8.461,2.067,12.059c0.535,1.469,1.168,2.851,1.881,4.131
	c0.044,0.077,0.085,0.155,0.13,0.232l2.422,4.342c-5.795,9.205-13.645,20.744-22.79,31.825
	C357.146,286.307,353.485,280.686,350.664,275.58 M361.85,293.85c3.071,3.771,6.577,7.667,10.577,11.647l-38.719,69.674
	l-0.401-54.006C343.532,314.008,353.246,304.162,361.85,293.85 M298.491,242.113h33.218l0.585,78.541
	c-5.006,3.456-10.13,6.252-15.301,8.117c-1.99,0.718-3.987,1.264-5.977,1.654L298.491,242.113z M331.916,392.844h-12.045
	l-8.711-61.412c2.056-0.401,4.12-0.962,6.175-1.703c5.058-1.825,10.068-4.532,14.969-7.865l0.424,57.151l40.445-72.775
	c0.603,0.593,1.216,1.187,1.842,1.783c0.899,0.857,1.822,1.714,2.757,2.569L331.916,392.844z M426.465,356.237
	c4.107,5.701,7.135,11.638,8.486,17.9l-0.005,0.001c0.825,3.237,1.265,6.63,1.265,10.124c0,22.453-18.136,40.721-40.428,40.721
	s-40.426-18.268-40.426-40.721c0-3.495,0.439-6.889,1.266-10.127l-0.005-0.001c1.38-6.396,4.512-12.417,8.747-18.177
	c7.776-10.573,19.288-20.258,30.594-29.728C407.376,335.8,418.805,345.608,426.465,356.237 M395.959,324.908
	c-0.47-0.393-0.938-0.784-1.407-1.177c-5.209-4.359-10.556-8.842-15.508-13.351l16.739-30.027l17.247,30.938
	C405.933,316.637,398.772,322.556,395.959,324.908 M471.698,392.844h-12.045l-45.31-81.272c1.702-1.273,3.385-2.499,4.998-3.63
	l39.498,71.073l0.688-92.757c8.537-2.759,18.258-4.559,27.776-3.447L471.698,392.844z"/>
</svg>
